HIERARCHY
ROOT Hips
{
	OFFSET	0.00	0.00	0.00
	CHANNELS 6 Xposition Yposition Zposition Zrotation Xrotation Yrotation
	JOINT Spine
	{
		OFFSET	 0.00	0.01	 0.00
		CHANNELS 3 Zrotation Xrotation Yrotation
		JOINT Spine1
		{
			OFFSET	 0.00	 2.45913012437421	 0.00
			CHANNELS 3 Zrotation Xrotation Yrotation
            JOINT Neck
            {
                OFFSET	 0.00	 2.48462964506057	 0.00
                CHANNELS 3 Zrotation Xrotation Yrotation
                JOINT Head
                {
                    OFFSET	 0.00	 0.927524780924562	 0.00
                    CHANNELS 3 Zrotation Xrotation Yrotation
                    End Site 
                    {
                        OFFSET	 0.00	 1.14999962169752	 0.00
                    }
                }
            }
			JOINT LeftShoulder
			{
				OFFSET	 0.00	 2.48462964506057	 0.00
				CHANNELS 3 Zrotation Xrotation Yrotation
				JOINT LeftUpArm
				{
					OFFSET	 0.00	 1.24881979654096	 0.00
					CHANNELS 3 Zrotation Xrotation Yrotation
					JOINT LeftForeArm
					{
						OFFSET	 0.00	2.59758046908119	 0.00
						CHANNELS 3 Zrotation Xrotation Yrotation
						JOINT LeftHand
						{
							OFFSET	 0.00	2.45542024364365	 0.00
							CHANNELS 3 Zrotation Xrotation Yrotation
							JOINT LeftHandThumb 
							{
								OFFSET	 0.00	0.00	 0.00
								CHANNELS 3 Zrotation Xrotation Yrotation
								End Site
								{
									OFFSET	 0.00	0.00	1.00000003353624
								}
							}
							JOINT L_Wrist_End 
							{
								OFFSET	 0.00	0.99999967115358	 0.00
								CHANNELS 3 Zrotation Xrotation Yrotation
								End Site 
								{
									OFFSET	 0.00	 0.00	 0.00
								}
							}
						}
					}
				}
			}
			JOINT RightShoulder
			{
				OFFSET	 0.00	 2.48462964506057	 0.00
				CHANNELS 3 Zrotation Xrotation Yrotation
				JOINT RightUpArm
				{
					OFFSET	 0.00	 1.24881979654096	 0.00
					CHANNELS 3 Zrotation Xrotation Yrotation
					JOINT RightForeArm
					{
						OFFSET	 0.00	2.59758046908119	 0.00
						CHANNELS 3 Zrotation Xrotation Yrotation
						JOINT RightHand
						{
							OFFSET	 0.00	2.45542024364365	 0.00
							CHANNELS 3 Zrotation Xrotation Yrotation
							JOINT RightHandThumb 
							{
								OFFSET	 0.00	0.00	 0.00
								CHANNELS 3 Zrotation Xrotation Yrotation
								End Site
								{
									OFFSET	 0.00	0.00	1.00000003353624
								}
							}
							JOINT R_Wrist_End 
							{
								OFFSET	 0.00	0.99999967115358	 0.00
								CHANNELS 3 Zrotation Xrotation Yrotation
								End Site 
								{
									OFFSET	 0.00	 0.00	 0.00
								}
							}
						}
					}
				}
			}
		}
	}
	JOINT LeftUpLeg
	{
		OFFSET	 1.2719394002717	 0.00	 0.00
		CHANNELS 3 Zrotation Xrotation Yrotation
		JOINT LeftLowLeg
		{
			OFFSET	 0.00	-4.3429100912261	 0.00
			CHANNELS 3 Zrotation Xrotation Yrotation
			JOINT LeftFoot
			{
				OFFSET	 0.00	-4.48767017425826	 0.00
				CHANNELS 3 Zrotation Xrotation Yrotation
				JOINT LeftToeBase
                {
                    OFFSET	 0.00	0.00	 1.51507020887566
                    CHANNELS 3 Zrotation Xrotation Yrotation
                    End Site 
                    {
                        OFFSET	 0.00	0.00	 0.75000010571191
                    }
                }
			}
		}
	}
	JOINT RightUpLeg
	{
		OFFSET	 -1.2719393604653	 0.00	 0.00
		CHANNELS 3 Zrotation Xrotation Yrotation
		JOINT RightLowLeg
		{
			OFFSET	 0.00	-4.3429100912261	 0.00
			CHANNELS 3 Zrotation Xrotation Yrotation
			JOINT RightFoot
			{
				OFFSET	 0.00	-4.48767017425826	 0.00
				CHANNELS 3 Zrotation Xrotation Yrotation
				JOINT RightToeBase
                {
                    OFFSET	 0.00	0.00	 1.51507020887566
                    CHANNELS 3 Zrotation Xrotation Yrotation
                    End Site 
                    {
                        OFFSET	 0.00	0.00	 0.749999965609858
                    }
                }   
			}
		}
	}
}
MOTION 
Frames:	13 
Frame Time: 0.02 
 -7.64843994140625 -9.2956201171875 9.12281005859375 92.1693 86.6759 -428.742 1.94863 -18.3189 0.116203 -8.53855 19.7752 3.15538 29.8902 50.8045 336.849 -40.4734 -81.4496 1035.11 -115.387695 -1.81973 366.565 -44.8313 6.94397 27.7498 0.0 19.7539 0.0 6.98575 -16.572 -10.522 0.0 0.0 0.0 0.0 0.0 0.0 121.3389 -4.70988 -364.18 47.5181 4.24551 -375.553 0.0 21.1108 0.0 6.89316 -9.87108 20.5834 0.0 0.0 0.0 0.0 0.0 0.0 -4.67199 1.23832 -372.163 0.0 17.1816 0.0 -20.0215 -11.003799 10.7366 0.0 -16.09985 0.0 3.10203 -0.148823 19.7395 0.0 23.0805 0.0 28.5407 -16.7248 -7.56356 0.0 -17.03991 0.0 
  -7.649190063476563 -9.29906982421875 9.123259887695312 93.835 86.7349 -430.264 1.91944 -18.4101 0.0663008 -8.51344 19.7628 3.13231 29.953 50.7925 336.765 -40.6204 -81.4667 1034.98 -115.3927 -1.84879 366.541 -44.8203 6.95119 27.7928 0.0 19.783 0.0 7.00487 -16.5414 -10.2603 0.0 0.0 0.0 0.0 0.0 0.0 121.3639 -4.7436 -364.099 47.5213 4.17437 -375.548 0.0 21.1146 0.0 6.82798 -9.81751 20.5486 0.0 0.0 0.0 0.0 0.0 0.0 -4.63269 1.13543 -372.312 0.0 17.1853 0.0 -20.0005 -11.0012 10.7366 0.0 -16.08773 0.0 3.12626 -0.189103 19.6384 0.0 23.0019 0.0 28.3947 -16.6951 -7.67458 0.0 -17.03659 0.0 
  -7.6497802734375 -9.300599975585937 9.123259887695312 93.8726 86.7404 -430.212 1.87727 -18.4079 0.031241 -8.46394 19.8126 3.16406 29.9657 50.6802 336.696 -40.4284 -81.4412 1035.17 -115.4048 -1.83402 366.556 -44.8154 7.00385 27.8642 0.0 19.8248 0.0 7.06567 -16.5544 -10.1824 0.0 0.0 0.0 0.0 0.0 0.0 121.3351 -4.74175 -364.041 47.5376 4.14718 -375.519 0.0 21.1223 0.0 6.83386 -9.85953 20.5218 0.0 0.0 0.0 0.0 0.0 0.0 -4.62142 1.12309 -372.377 0.0 17.2021 0.0 -20.0494 -11.0112 10.7068 0.0 -16.08173 0.0 3.13971 -0.134391 19.6296 0.0 22.9216 0.0 28.4749 -16.7327 -7.70673 0.0 -17.0038 0.0 
  -7.650159912109375 -9.3018798828125 9.123289794921876 95.1663 86.7576 -431.43 1.8317 -18.4467 0.000147209 -8.41544 19.8082 3.18943 29.9464 50.6203 336.678 -40.4175 -81.4272 1035.16 -115.4323 -1.83923 366.615 -44.8005 7.06875 27.9229 0.0 19.8468 0.0 7.13325 -16.5127 -10.1421 0.0 0.0 0.0 0.0 0.0 0.0 121.3074 -4.73168 -363.996 47.5411 4.11174 -375.506 0.0 21.1249 0.0 6.87526 -9.92417 20.4786 0.0 0.0 0.0 0.0 0.0 0.0 -4.62563 1.0504 -372.463 0.0 17.1997 0.0 -20.0559 -11.012699 10.7204 0.0 -16.05198 0.0 3.12341 -0.160041 19.5555 0.0 22.8476 0.0 28.4985 -16.7339 -7.68594 0.0 -17.00544 0.0 
  -7.652030029296875 -9.304229736328125 9.123610229492188 95.3213 86.783 -431.455 1.80277 -18.4293 -0.0205003 -8.39578 19.8106 3.19939 30.0164 50.5406 336.572 -40.3131 -81.4364 1035.23 -115.4372 -1.81314 366.614 -44.7898 7.08557 27.9258 0.0 19.8318 0.0 7.16742 -16.4828 -10.0396 0.0 0.0 0.0 0.0 0.0 0.0 121.3163 -4.77796 -364.003 47.542 4.16784 -375.535 0.0 21.083 0.0 6.89455 -9.92395 20.3975 0.0 0.0 0.0 0.0 0.0 0.0 -4.58482 1.02762 -372.572 0.0 17.2095 0.0 -20.0837 -11.0156 10.6929 0.0 -16.04156 0.0 3.16491 -0.138647 19.5062 0.0 22.8204 0.0 28.4494 -16.7301 -7.76987 0.0 -17.02209 0.0 
  -7.65260009765625 -9.303179931640624 9.123179931640625 96.6032 86.7712 -432.713 1.82394 -18.3813 0.055477 -8.44873 19.7323 3.22706 30.0975 50.4948 336.478 -40.2521 -81.4633 1035.34 -115.4681 -1.80842 366.609 -44.7283 7.078 28.0116 0.0 19.8675 0.0 7.22019 -16.4661 -10.0077 0.0 0.0 0.0 0.0 0.0 0.0 121.2666 -4.76503 -363.927 47.5951 4.09333 -375.666 0.0 21.0742 0.0 6.83409 -9.88227 20.3262 0.0 0.0 0.0 0.0 0.0 0.0 -4.62532 0.951053 -372.637 0.0 17.2179 0.0 -20.0635 -11.0154 10.7513 0.0 -16.03368 0.0 3.12349 -0.167089 19.4619 0.0 22.7336 0.0 28.5245 -16.7781 -7.72779 0.0 -16.96365 0.0 
  -7.654240112304688 -9.303419799804688 9.123380126953125 97.733 86.7859 -433.767 1.83991 -18.3435 0.11188 -8.51003 19.6617 3.23436 30.3129 50.4313 336.253 -40.0433 -81.5157 1035.63 -115.486 -1.82958 366.624 -44.6605 7.10835 28.0267 0.0 19.8785 0.0 7.18813 -16.4999 -10.4222 0.0 0.0 0.0 0.0 0.0 0.0 121.2726 -4.81008 -363.902 47.5875 4.02983 -375.771 0.0 21.2397 0.0 6.80699 -9.97242 20.2038 0.0 0.0 0.0 0.0 0.0 0.0 -4.61774 0.876197 -372.694 0.0 17.2186 0.0 -20.1541 -11.011299 10.7027 0.0 -16.02898 0.0 3.12242 -0.201274 19.4074 0.0 22.6801 0.0 28.5247 -16.7756 -7.73696 0.0 -16.95518 0.0 
  -7.6553802490234375 -9.302979736328124 9.123599853515625 98.4876 86.7904 -434.425 1.84463 -18.295 0.145428 -8.56211 19.6206 3.23583 30.4745 50.3637 336.093 -39.7501 -81.5635 1035.96 -115.491196 -1.85039 366.625 -44.6599 7.16242 27.8949 0.0 19.82 0.0 7.16585 -16.4935 -10.3488 0.0 0.0 0.0 0.0 0.0 0.0 121.2335 -4.81029 -363.948 47.6251 3.90456 -375.701 0.0 21.5779 0.0 6.48556 -9.93146 20.0638 0.0 0.0 0.0 0.0 0.0 0.0 -4.62035 0.812828 -372.807 0.0 17.2438 0.0 -20.1269 -10.997 10.7207 0.0 -16.00032 0.0 3.13877 -0.205113 19.47 0.0 22.6304 0.0 28.4838 -16.8299 -7.90073 0.0 -16.95695 0.0 
  -7.6572198486328125 -9.303900146484375 9.123930053710938 100.06 86.8121 -435.864 1.84334 -18.2902 0.144487 -8.63002 19.5555 3.18859 30.6253 50.324 335.95 -39.5779 -81.616 1036.16 -115.5069 -1.94146 366.614 -44.5755 7.16223 27.9093 0.0 19.9083 0.0 7.23032 -16.5665 -10.2932 0.0 0.0 0.0 0.0 0.0 0.0 121.2169 -4.86166 -364.003 47.6067 3.82347 -375.873 0.0 21.9643 0.0 6.18177 -9.88075 19.6802 0.0 0.0 0.0 0.0 0.0 0.0 -4.60252 0.707008 -372.923 0.0 17.2537 0.0 -20.0959 -10.9599 10.7139 0.0 -16.02629 0.0 3.13189 -0.238244 19.3137 0.0 22.5302 0.0 28.5064 -16.8171 -7.87967 0.0 -16.92225 0.0 
  -7.659089965820312 -9.306060180664062 9.124959716796875 100.462 86.8503 -436.136 1.83858 -18.3017 0.130211 -8.63563 19.6032 3.18788 30.7123 50.3041 335.895 -39.2704 -81.651 1036.51 -115.5335 -1.96653 366.58 -44.553 7.17884 27.7927 0.0 19.8714 0.0 7.26438 -16.5231 -10.311 0.0 0.0 0.0 0.0 0.0 0.0 121.2175 -4.98633 -363.974 47.5079 3.74912 -376.114 0.0 22.4409 0.0 5.9521 -9.88355 19.1826 0.0 0.0 0.0 0.0 0.0 0.0 -4.53993 0.678926 -372.947 0.0 17.2288 0.0 -20.1757 -10.931999 10.6025 0.0 -16.01127 0.0 3.16533 -0.227269 19.1908 0.0 22.477 0.0 28.4006 -16.7445 -7.94487 0.0 -16.97312 0.0 
  -7.66052001953125 -9.306669921875 9.125280151367187 100.615 86.8509 -436.187 1.81157 -18.3148 0.115693 -8.63205 19.6958 3.22538 30.7798 50.2088 335.802 -38.9006 -81.6445 1036.88 -115.5509 -1.92943 366.56 -44.5553 7.17566 27.6777 0.0 19.844 0.0 7.29048 -16.453 -10.3408 0.0 0.0 0.0 0.0 0.0 0.0 121.1933 -5.05938 -363.915 47.4509 3.58231 -376.134 0.0 22.9724 0.0 5.5472 -9.73914 18.8903 0.0 0.0 0.0 0.0 0.0 0.0 -4.52641 0.652919 -372.987 0.0 17.2422 0.0 -20.1341 -10.8976 10.5836 0.0 -16.0129 0.0 3.17625 -0.201248 19.1556 0.0 22.4333 0.0 28.3461 -16.7562 -8.0332 0.0 -16.97499 0.0 
  -7.661680297851563 -9.307100219726562 9.125079956054687 101.086 86.8479 -436.567 1.81324 -18.3057 0.115907 -8.66098 19.7296 3.22191 30.7385 50.1602 335.836 -38.7464 -81.6386 1036.99 -115.58 -1.9381 366.569 -44.505 7.16334 27.5904 0.0 19.8979 0.0 7.20685 -16.4561 -10.4467 0.0 0.0 0.0 0.0 0.0 0.0 121.1546 -5.16118 -363.875 47.3741 3.52311 -376.453 0.0 23.3648 0.0 5.34087 -9.61443 18.6641 0.0 0.0 0.0 0.0 0.0 0.0 -4.53203 0.610676 -373.094 0.0 17.2656 0.0 -20.1485 -10.8997 10.5988 0.0 -16.01545 0.0 3.17644 -0.203301 19.0771 0.0 22.3962 0.0 28.3446 -16.7829 -8.06166 0.0 -16.95778 0.0 
  -7.663090209960938 -9.30666015625 9.124539794921875 101.771 86.8222 -437.192 1.81347 -18.2522 0.125609 -8.72059 19.6943 3.19606 30.7007 50.1597 335.891 -38.685 -81.6461 1037.03 -115.581 -1.97914 366.552 -44.4919 7.12804 27.4668 0.0 19.9178 0.0 7.17091 -16.4812 -10.4258 0.0 0.0 0.0 0.0 0.0 0.0 121.1757 -5.22555 -363.85 47.2752 3.40839 -376.568 0.0 23.8027 0.0 5.07604 -9.56455 18.03 0.0 0.0 0.0 0.0 0.0 0.0 -4.55619 0.553359 -373.143 0.0 17.2999 0.0 -20.0718 -10.8643 10.609 0.0 -16.05538 0.0 3.16748 -0.240009 19.0986 0.0 22.4346 0.0 28.3957 -16.8555 -8.07252 0.0 -16.94406 0.0 
